<?xml version="1.0" encoding="UTF-8"?>
<svg id="Layer_2" data-name="Layer 2" xmlns="http://www.w3.org/2000/svg" viewBox="0 0 194.67 194.75">
  <g id="Layer_1-2" data-name="Layer 1">
    <path class="cls-1" d="M182.04,194.75H12.54c-.19-.08-.36-.19-.56-.22C4.77,193.26,0,187.6,0,180.29,0,124.93,0,69.57,0,14.21,0,7.91,3.91,2.6,9.94.73c.86-.27,1.74-.49,2.6-.73,56.5,0,113,0,169.5,0,.1.07.19.17.3.19,8.09,1.69,12.33,6.89,12.33,15.13,0,54.7,0,109.4,0,164.1,0,.29,0,.58,0,.87-.13,7.06-4.39,12.4-11.21,14.06-.47.12-.94.26-1.41.39ZM75.91,73.11v92.66h28.68v-1.59c0-14.62-.09-29.25.06-43.87.04-4.01.43-8.08,1.24-12.01,1.13-5.55,4.24-9.76,9.99-11.38,1.66-.47,3.43-.66,5.16-.79,7.74-.59,12.87,3.13,14.81,10.62,1.13,4.36,1.2,8.81,1.2,13.27.02,14.75,0,29.5,0,44.24v1.52h28.75v-1.07c0-17.5.05-34.99-.02-52.49-.03-7.01-.65-13.97-2.72-20.72-2.54-8.25-7.29-14.64-15.52-17.95-6.71-2.7-13.75-3.39-20.86-2.48-9.58,1.23-17.3,5.67-22.42,14.11-.13.21-.34.37-.77.83v-12.9h-27.56ZM28.9,73.12v92.63h28.69v-92.63h-28.69ZM43.3,26.88c-9.04-.02-16.69,7.48-16.72,16.41-.04,9.43,7.33,16.97,16.61,17,9.2.03,16.77-7.44,16.81-16.57.04-9.22-7.49-16.81-16.7-16.84Z"/>
  </g>
</svg>